<svg height="102" viewBox="0 0 102 102" width="102" xmlns="http://www.w3.org/2000/svg" xmlns:xlink="http://www.w3.org/1999/xlink"><defs><rect id="a" height="68" rx="7.48538" width="76" x="13" y="17"/><filter id="b" height="105.9%" width="105.3%" x="-2.6%" y="-1.5%"><feOffset dx="0" dy="1" in="SourceAlpha" result="shadowOffsetOuter1"/><feGaussianBlur in="shadowOffsetOuter1" result="shadowBlurOuter1" stdDeviation=".5"/><feColorMatrix in="shadowBlurOuter1" type="matrix" values="0 0 0 0 0.128874173   0 0 0 0 0.255703588   0 0 0 0 0.35716712  0 0 0 0.0685096154 0"/></filter></defs><g fill="none" fill-rule="evenodd"><g><path d="m51 102c47.8125 0 51-3.1875 51-51s-3.1875-51-51-51-51 3.1875-51 51 3.1875 51 51 51z" fill="#4fa2ea"/><use fill="#000" filter="url(#b)" xlink:href="#a"/><use fill="#fff" fill-rule="evenodd" xlink:href="#a"/><g fill="#ebeef0"><path d="m21.6634178 35h35.0055275 3.6676369c.9186803 0 1.6634178.7447375 1.6634178 1.6634178v.6731644c0 .9186803-.7447375 1.6634178-1.6634178 1.6634178h-38.6731644c-.9186803 0-1.6634178-.7447375-1.6634178-1.6634178v-.6731644c0-.9186803.7447375-1.6634178 1.6634178-1.6634178z"/><rect height="4" rx="1.663418" width="62" x="20" y="26"/></g></g><g transform="translate(21 46)"><text fill="#2a8dd4" font-family="Roboto-Medium, Roboto Medium" font-size="9.801"><tspan x="15.237539" y="9">42</tspan></text><path d="m.49902793 3.75302358 1.39222141-2.66741557c.18771525-.32082115.52664556-1.08037724.89686174-1.08037724h4.67457745c.49735081 0 .86388839.14594367.86388839.32570052v5.05293312c0 .28339208-.20422423.55609004-.40236811.75927675l-3.21891843 2.94078928c-.37806265.02326273-.62625942-.071341-.74459031-.28381111-.17749633-.31870511-.1356216-.79575569-.10955003-.91339007l.54075142-2.55863074h-2.93865436c-.57357437 0-1.04286248.01833682-1.04286248-.56983532v-.57747808c0-.14971654.03128587-.29408606.08864331-.42776154zm9.14691438-3.74779281h.65968269c.3643327 0 .6596827.29789113.6596827.66535847v3.99215081c0 .36746734-.29535.66535847-.6596827.66535847h-.65968269c-.36433266 0-.65968269-.29789113-.65968269-.66535847v-3.99215081c0-.36746734.29535003-.66535847.65968269-.66535847z" fill="#319be6" fill-rule="nonzero" transform="matrix(-1 0 0 -1 11.375692 9.092604)"/></g><rect fill="#ebeef0" height="12" rx="6" width="46" x="19" y="67"/><path d="m1.21559082 11.8912715 10.30748868-5.15884641c.3825517-.19146523.537458-.65679792.3459927-1.03934966-.0749169-.14968578-.1963069-.27107575-.3459927-.34599273l-10.29912536-5.15466061c-.38255174-.19146523-.84788443-.036559-1.03934966.34599274-.07307814.14601174-.09814697.31138239-.07162597.47249254l.59878809 3.63752638c.04710261.28613955.28013129.50520585.56863216.53456141l5.67351895.57729227c.10677598.01086467.1889993.09912328.19228622.20640024l.00221363.07224737c.00444766.14516099-.10629681.26803773-.25113765.27865026l-5.59855718.41020779c-.29715653.02177274-.54030553.24508545-.58722721.53932076l-.60750137 3.80950505c-.06736849.4224526.22048411.8195311.64293678.8868996.15993131.0255042.32383419.0002375.46865989-.072247z" fill="#319be6" transform="translate(71 67)"/></g></svg>